<?xml version="1.0" encoding="utf-8"?>
<svg xmlns="http://www.w3.org/2000/svg" height="256" width="256" viewBox="0 0 256 256">
  <g>
    <rect height="256" width="256" fill="#FF711E" />
    <path id="path1" transform="rotate(0,128,128) translate(12,54.88736837431) scale(7.2500004321337,7.2500004321337)  " fill="#000000" d="M2.7440681,2.1969905C2.7440678,2.1969905 2.7440678,2.4960017 2.8440665,2.6960137 2.8440665,2.6960137 3.3430673,2.7959893 3.7420656,2.4960017 3.6420671,2.5960076 3.4430658,2.4960017 2.7440681,2.1969905z M5.1400692,0C5.3400661,1.2708915E-07 5.6390697,0.20001227 5.7390682,0.6990051 5.7390682,0.69900504 6.0390712,1.6969906 4.4410712,1.3980102L4.4410712,1.5979913C4.6410681,1.5979916 4.9400641,1.6969906 5.0400702,1.6969903 5.4400646,1.6969906 5.7390682,1.5979916 5.8390667,1.3980102 6.0390712,1.1979978 6.1380707,0.9979857 6.1380707,0.89898679L6.1380707,0.79901121 6.2380692,0.79901121C6.8370682,1.2980039 7.8360693,2.0969844 8.2350713,2.1969905 8.2350713,2.1969905 10.532069,3.394988 12.72807,3.5939929L12.72807,3.693999C12.828069,4.5929858 13.028073,6.2900069 12.928075,8.5870034 12.928075,8.5870034 13.427076,8.1870095 13.227071,3.7940051L13.227071,3.693999 13.427076,3.693999C13.727071,3.6939993 14.126073,3.6939993 14.426068,3.5939929 14.426068,3.5939932 15.224074,3.4949941 16.323073,3.3949878L16.422072,3.3949878C16.622076,4.1929919 17.02207,6.2900069 16.822073,9.0859964 16.822073,9.0859964 17.621071,8.6860025 17.121069,3.2950127L17.221075,3.2950127C18.220078,3.1950066,19.218071,3.0950005,20.017075,2.8949883L20.217072,2.8949883C20.416077,3.0950005 21.115074,3.7940054 21.115074,5.1919849 21.115074,5.1919849 20.316078,6.8890059 20.616074,7.8879983 20.616074,7.8879983 20.616074,6.5899946 21.714075,5.3919966 21.714075,5.3919966 21.315071,4.1929919 21.015076,3.4949939 20.915077,3.1950066 20.816078,2.9949944 20.716072,2.7959893L20.716072,2.6960137C20.915077,2.6960137 21.115074,2.5960076 21.215073,2.5960078 21.215073,2.5960076 24.809076,1.9970088 26.307079,3.9939868 26.407078,3.9939871 26.407078,4.0939929 26.507076,4.0939929 26.80608,4.2929981 27.006077,4.4930103 27.206082,4.6929919 27.905079,5.3919966 28.504078,6.1900007 28.803082,7.0889871 29.003079,7.6879861 29.103077,8.2869851 29.103077,8.8859842 29.103077,9.1860025 29.003079,9.5849883 29.103077,9.8850066 29.103077,10.683011 29.402081,11.381985 29.802084,11.980984 30.001082,12.281003 30.201079,12.480984 30.401083,12.779995 30.600081,13.079982 31.000082,13.278988 31.19908,13.479 31.19908,13.479 32.597084,15.076992 31.69908,16.374996 31.69908,16.374996 30.600081,17.672998 30.700079,15.975001 30.700079,15.975001 31.69908,14.976986 29.003079,13.079982 28.703076,12.880001 28.504078,12.480984 28.40408,12.180997 27.905079,11.481992 27.605076,10.583981 27.505078,9.7850005 27.505078,9.4849822 27.405079,9.1860025 27.405079,8.8859842 27.405079,8.5870034 27.405079,8.2869851 27.30608,8.0870034 27.206082,7.8879983 27.106075,7.6879861 27.006077,7.3890054L27.006077,7.4880044C27.106075,8.6860025 27.106075,10.283993 26.80608,10.982999 26.80608,10.982999 27.106075,12.880001 29.402081,14.87701 29.402081,14.87701 30.201079,15.476009 29.402081,19.469995L27.006077,19.469995C27.006077,19.469995 25.70808,19.070001 27.106075,17.971979 27.106075,17.971979 28.304081,17.872003 27.805081,15.975001 27.805081,15.975001 27.705082,14.676998 26.307079,14.377987 26.307079,14.377987 26.107075,14.277981 25.908077,14.178005L25.808079,14.178005 25.808079,14.277981C25.70808,15.774989,25.508074,18.171991,25.10908,18.471002L23.012079,18.471002C22.813074,18.471002 22.513079,18.071985 22.41308,17.872003 22.313074,17.273006 22.912073,17.072994 23.312075,16.873989 23.811075,16.574001 23.911074,15.975001 23.811075,15.376003 23.811075,15.376003 23.412073,13.877987 22.813074,13.678982 22.813074,13.678982 19.518074,12.080991 18.919075,11.083005L18.819077,11.183011C17.421072,11.78201 15.724074,12.381009 13.926068,12.381009 13.926068,12.381009 14.126073,15.275997 14.725073,16.674007 14.725073,16.674007 15.424071,18.471002 14.426068,20.169L11.830074,20.169C11.830074,20.169 11.330074,18.670984 12.529072,18.370996 13.128072,18.271997 13.227071,17.37298 13.128072,16.973995 13.028073,16.473995 12.828069,16.174984 12.529072,15.874995L12.429073,15.975001 12.029072,18.171991C11.63007,18.370996 11.430073,18.571008 11.330074,18.77099 11.231068,18.971002 11.131069,19.170007 11.131069,19.269983L8.6350662,19.269983C8.6350662,19.269983 8.0360662,17.872003 9.4330703,17.472986 9.4330703,17.472986 10.432071,17.37298 10.032069,15.675991 10.032069,15.675991 9.8330719,14.676998 9.4330703,14.377987 9.4330703,14.377987 8.8340713,13.479 8.3350698,12.679989L8.2350713,12.480984C8.0360662,12.080991 7.1370718,10.083981 7.0370652,7.1889932 7.0370652,7.1889932 6.4380662,7.5880105 7.0370652,10.683011L7.0370652,10.782986 6.9370667,10.683011C6.5380723,10.384 6.2380692,10.083981 5.9390651,9.6849944 4.7410666,8.6860025 4.2410666,6.9890115 3.9420702,6.3899824 3.9420704,6.3899824 3.6420671,5.9909956 1.8450655,6.3899824 1.8450654,6.3899824 0.34706739,6.8890059 0.44706577,5.0920093 0.44706592,5.0920093 0.048063654,4.3930042 0.048063725,4.0939929 0.048063654,4.0939929 -0.25193572,3.0950005 0.64706698,2.5960078 0.64706681,2.5960076 2.1450647,1.9970088 2.444065,1.2980041 2.4440648,1.2980039 3.6420671,0.39898682 4.4410712,0.39898679L4.5410697,0.39898679C4.4410712,0.39898682,4.8400656,1.2708915E-07,5.1400692,0z" />
  </g>
</svg>

