<?xml version="1.0" encoding="utf-8"?>
<svg xmlns="http://www.w3.org/2000/svg" height="256" width="256" viewBox="0 0 256 256">
  <g>
    <path id="path1" transform="rotate(0,128,128) translate(20,24.7722549438477) scale(6.75,6.75)  " fill="#000000" d="M0.40802002,9.946991L7.2670288,9.946991 7.2670288,30.585999 0.40802002,30.585999z M24.106018,9.4620056C28.615051,9.4620056,32,12.412994,32,18.748993L32,30.584991 25.143005,30.584991 25.143005,19.54599C25.143005,16.768005 24.147034,14.878998 21.665039,14.878998 19.770996,14.878998 18.643005,16.156006 18.147034,17.385986 17.96405,17.825012 17.923035,18.442993 17.923035,19.061005L17.923035,30.584991 11.059998,30.584991C11.059998,30.584991,11.152039,11.881989,11.059998,9.946991L17.923035,9.946991 17.923035,12.872986C17.907043,12.893005,17.892029,12.919006,17.877014,12.938995L17.923035,12.938995 17.923035,12.872986C18.832031,11.463989,20.460022,9.4620056,24.106018,9.4620056z M3.8810425,0C6.2300415,0 7.6750488,1.5429993 7.7160034,3.5650024 7.7160034,5.5469971 6.2300415,7.131012 3.8400269,7.131012L3.7940063,7.131012C1.4910278,7.131012 0,5.5469971 0,3.5650024 0,1.5429993 1.5370483,0 3.8810425,0z" />
  </g>
</svg>

