<?xml version="1.0" encoding="utf-8"?>
<svg xmlns="http://www.w3.org/2000/svg" height="256" width="256" viewBox="0 0 256 256">
  <g>
    <path id="path1" transform="rotate(0,128,128) translate(21,27.6875) scale(6.6875,6.6875)  " fill="#000000" d="M14,19L14,19.5C14,20.878 15.122,22 16.5,22 17.878,22 19,20.878 19,19.5L19,19z M2,16.765711L2,28 30.000999,28 30.000408,16.765831 27.701994,18.145C26.769995,18.705,25.701994,19,24.614996,19L21,19 21,19.5C21,21.981001 18.981,24 16.5,24 14.019,24 12,21.981001 12,19.5L12,19 7.3850079,19C6.2980086,19,5.2300093,18.704,4.2980099,18.145z M2,9L2,14.433969 5.3270092,16.43C5.9480088,16.803001,6.6600083,17,7.3850079,17L13,17 20,17 24.614996,17C25.339994,17,26.051994,16.803001,26.672995,16.43L30.000286,14.434323 30,9 23,9 9,9z M12,2C10.897003,2,10,2.8970032,10,4L10,7 22,7 22,4C22,2.8970032,21.102997,2,20,2z M12,0L20,0C22.205994,0,24,1.7939987,24,4L24,7 30,7C31.103001,7,32,7.8969998,32,9L32,28C32,29.103001,31.103001,30,30,30L2,30C0.89699984,30,0,29.103001,0,28L0,9C0,7.8969998,0.89699984,7,2,7L8,7 8,4C8,1.7939987,9.7940063,0,12,0z" />
  </g>
</svg>

