<?xml version="1.0" encoding="UTF-8"?>
<!DOCTYPE svg PUBLIC "-//W3C//DTD SVG 1.1//EN" "http://www.w3.org/Graphics/SVG/1.1/DTD/svg11.dtd">
<!-- Creator: CorelDRAW X7 -->
<?xml-stylesheet href="Sci-Fi_frame.css" type="text/css"?>
<svg xmlns="http://www.w3.org/2000/svg" xml:space="preserve" width="0.788764in" height="0.822283in" version="1.1" style="shape-rendering:geometricPrecision; text-rendering:geometricPrecision; image-rendering:optimizeQuality; fill-rule:evenodd; clip-rule:evenodd"
viewBox="0 0 98 102"
 xmlns:xlink="http://www.w3.org/1999/xlink">
 <g id="Layer_x0020_1">
  <metadata id="CorelCorpID_0Corel-Layer"/>
  <polygon class="fil0 str0" points="1,0 32,0 40,5 88,5 91,1 97,1 97,88 84,102 62,102 60,94 1,94 1,81 3,76 3,41 1,37 "/>
  <polygon class="fil1 str0" points="98,90 98,101 87,101 "/>
  <polygon class="fil1 str0" points="0,38 2,41 2,76 0,79 "/>
  <polygon class="fil1 str0" points="40,4 46,4 46,1 36,1 "/>
  <polygon class="fil1 str0" points="48,4 57,4 57,1 48,1 "/>
  <polygon class="fil1 str0" points="59,4 65,4 65,1 59,1 "/>
  <polygon class="fil1 str0" points="67,4 69,4 69,1 67,1 "/>
  <polygon class="fil1 str0" points="72,4 82,4 82,1 72,1 "/>
  <polygon class="fil1 str0" points="87,4 84,4 84,1 89,1 "/>
 </g>
</svg>
