<?xml version="1.0" encoding="UTF-8"?>
<!DOCTYPE svg PUBLIC "-//W3C//DTD SVG 1.1//EN" "http://www.w3.org/Graphics/SVG/1.1/DTD/svg11.dtd">
<!-- Creator: CorelDRAW X7 -->
<svg xmlns="http://www.w3.org/2000/svg" xml:space="preserve" width="1.80364in" height="0.499866in" version="1.1" style="shape-rendering:geometricPrecision; text-rendering:geometricPrecision; image-rendering:optimizeQuality; fill-rule:evenodd; clip-rule:evenodd"
viewBox="0 0 484 134"
 xmlns:xlink="http://www.w3.org/1999/xlink">
 <defs>
  <style type="text/css">
   <![CDATA[
    .str6 {stroke:#373435;stroke-width:3.72568}
    .str4 {stroke:#373435;stroke-width:1.86231}
    .str3 {stroke:#373435;stroke-width:0.804924}
    .str1 {stroke:#373435;stroke-width:0.804924}
    .str0 {stroke:#373435;stroke-width:5.58904;stroke-dasharray:55.890436 16.767131}
    .str5 {stroke:#373435;stroke-width:3.72568;stroke-dasharray:3.725677 3.725677}
    .str2 {stroke:#373435;stroke-width:0.804924;stroke-dasharray:1.609847 0.804924}
    .fil0 {fill:none}
    .fil2 {fill:#848688}
    .fil1 {fill:#373435}
   ]]>
  </style>
 </defs>
 <g id="Layer_x0020_1">
  <metadata id="CorelCorpID_0Corel-Layer"/>
  <path class="fil0 str0" d="M67 9c32,0 58,26 58,58 0,32 -26,58 -58,58 -32,0 -58,-26 -58,-58 0,-32 26,-58 58,-58z"/>
  <path class="fil1" d="M128 100l278 0 -7 7 -276 0c2,-2 4,-5 5,-7zm-2 -68l349 0 -7 7 -338 0c-1,-3 -2,-5 -4,-7z"/>
  <polyline class="fil0 str1" points="124,28 140,13 177,13 193,21 231,21 235,15 404,15 415,29 484,29 "/>
  <polyline class="fil0 str1" points="122,111 111,122 165,122 168,116 399,116 415,100 "/>
  <path class="fil0 str2" d="M67 0c37,0 67,30 67,67 0,37 -30,67 -67,67 -37,0 -67,-30 -67,-67 0,-37 30,-67 67,-67z"/>
  <polygon class="fil1 str3" points="110,12 137,12 123,25 "/>
  <path class="fil2" d="M131 40l334 0 -55 55 -280 0c4,-8 7,-18 7,-28 0,-10 -2,-19 -6,-27z"/>
  <path class="fil0 str4" d="M67 9c32,0 58,26 58,58 0,32 -26,58 -58,58 -32,0 -58,-26 -58,-58 0,-32 26,-58 58,-58z"/>
  <path class="fil0 str5" d="M67 19c26,0 48,22 48,48 0,26 -22,48 -48,48 -26,0 -48,-22 -48,-48 0,-26 22,-48 48,-48z"/>
  <path class="fil0 str6" d="M67 26c23,0 41,18 41,41 0,23 -18,41 -41,41 -23,0 -41,-18 -41,-41 0,-23 18,-41 41,-41z"/>
 </g>
</svg>
